<?xml version="1.0" encoding="UTF-8"?>
<svg width="12px" height="12px" viewBox="0 0 12 12" version="1.1" xmlns="http://www.w3.org/2000/svg" xmlns:xlink="http://www.w3.org/1999/xlink">
    <!-- Generator: Sketch 46.2 (44496) - http://www.bohemiancoding.com/sketch -->
    <title>搜索</title>
    <desc>Created with Sketch.</desc>
    <defs></defs>
    <g id="Page-1" stroke="none" stroke-width="1" fill="none" fill-rule="evenodd">
        <g id="01运行监控/01信息列表" transform="translate(-877.000000, -106.000000)" fill="#2899EE">
            <g id="搜索" transform="translate(870.000000, 100.000000)">
                <g id="图标/查询" transform="translate(7.000000, 6.000000)">
                    <path d="M7.5,0 C5.01487125,0 3,2.01487125 3,4.5 C3,5.5395 3.35586562,6.49424625 3.94837125,7.255875 L0.164634713,11.0396231 C0.0547485375,11.1494981 0,11.2931212 0,11.4375 C0,11.5815011 0.0547485375,11.7251244 0.164634713,11.8349991 C0.274497975,11.9448738 0.4185105,12 0.5625,12 C0.7064895,12 0.850501875,11.9448738 0.95999925,11.8349991 L4.7437575,8.05162875 C5.50575375,8.64412313 6.46012125,9 7.5,9 C9.98512875,9 12,6.98512875 12,4.5 C12,2.01487125 9.98512875,0 7.5,0 L7.5,0 L7.5,0 Z M7.5,7.875 C5.63887125,7.875 4.125,6.36112875 4.125,4.5 C4.125,2.63887125 5.63887125,1.125 7.5,1.125 C9.36112875,1.125 10.875,2.63887125 10.875,4.5 C10.875,6.36112875 9.36112875,7.875 7.5,7.875 L7.5,7.875 L7.5,7.875 Z" id="查询" transform="translate(6.000000, 6.000000) scale(-1, 1) translate(-6.000000, -6.000000) "></path>
                </g>
            </g>
        </g>
    </g>
</svg>